<?xml version="1.0" encoding="UTF-8"?>
<svg xmlns="http://www.w3.org/2000/svg" viewBox="0 0 64 64" width="64" height="64" role="img"><title>Level Up favicon</title><rect width="64" height="64" fill="#E1140A"/><g transform="translate(12.2 7.04) scale(0.43) translate(-4 -2)"><mask id="x-m95" maskUnits="userSpaceOnUse" x="-2000" y="-2000" width="4000" height="4000"><rect x="-2000" y="-2000" width="4000" height="4000" fill="#fff"/><path d="M26 38L50 24L74 38V49L50 35L26 49ZM26 60L50 46L74 60V71L50 57L26 71ZM26 82L50 68L74 82V93L50 79L26 93Z" fill="#000"/></mask><g mask="url(#x-m95)"><path d="M50 2L96 13V58C96 88 77 106 50 118C23 106 4 88 4 58V13Z" style="fill:#FFFFFF"/></g></g></svg>
