<?xml version="1.0" encoding="UTF-8"?>
<svg xmlns="http://www.w3.org/2000/svg" viewBox="-17.67 -99.17 449.94 314.29" width="449.94" height="314.29" role="img"><title>Level Up · Lifter U</title><path d="M6.5-75L29.8-75L29.8-10.3L19.3-20.7L75.2-20.7L75.2 0L6.5 0L6.5-75ZM93.5-45.7L149.2-45.7L149.2-29.3L93.5-29.3L93.5-45.7ZM104.7-66.5L109.4-37.5L104.7-8.5L95.6-18.6L152.7-18.6L152.7 0L81.6 0L87.2-37.5L81.6-75L152.2-75L152.2-56.4L95.6-56.4L104.7-66.5ZM182.3-75L210.2-10.6L200.5-10.6L228.3-75L252.7-75L218.3 0L191.8 0L157.4-75L182.3-75ZM268.9-45.7L324.6-45.7L324.6-29.3L268.9-29.3L268.9-45.7ZM280.1-66.5L284.8-37.5L280.1-8.5L271-18.6L328.1-18.6L328.1 0L257 0L262.6-37.5L257-75L327.6-75L327.6-56.4L271-56.4L280.1-66.5ZM339.4-75L362.7-75L362.7-10.3L352.2-20.7L408.1-20.7L408.1 0L339.4 0L339.4-75Z" style="fill:#0F0F0F"/><g transform="translate(-314.3 156)"><path d="M529.2-75L572.1-75Q581.9-75 589.0-71.7Q596-68.4 599.7-62.5Q603.4-56.5 603.4-48.4L603.4-48.4Q603.4-40.4 599.7-34.4Q596-28.4 589.0-25.1Q581.9-21.8 572.1-21.8L572.1-21.8L540-21.8L540-40.2L570.6-40.2Q575-40.2 577.5-42.4Q579.9-44.6 579.9-48.4L579.9-48.4Q579.9-52.4 577.5-54.5Q575-56.6 570.6-56.6L570.6-56.6L542-56.6L552.5-67.2L552.5 0L529.2 0L529.2-75Z" style="fill:#0F0F0F"/><path d="M439.8 -97.5V-38.65A38.65 38.65 0 0 0 517.1 -38.65V-97.5H494.27V-38.65A15.82 15.82 0 0 1 462.63 -38.65V-97.5ZM488.89 -69.75A10.44 10.44 0 1 0 468.01 -69.75A10.44 10.44 0 1 0 488.89 -69.75Z" style="fill:#E1140A"/><rect x="388.78" y="-102" width="179.34" height="7.5" rx="3.75" style="fill:#E1140A"/><rect x="406.95" y="-115.5" width="10.05" height="34.5" rx="3.01" style="fill:#E1140A"/><rect x="395.74" y="-110.25" width="7.73" height="24" rx="2.32" style="fill:#E1140A"/><rect x="539.9" y="-115.5" width="10.05" height="34.5" rx="3.01" style="fill:#E1140A"/><rect x="553.43" y="-110.25" width="7.73" height="24" rx="2.32" style="fill:#E1140A"/></g><path d="M10.3 190.7L8.1 190.7L8.1 178.6L13.0 178.6Q14.6 178.6 15.8 179.1Q16.9 179.6 17.5 180.6Q18.2 181.6 18.2 182.9L18.2 182.9Q18.2 184.2 17.5 185.2Q16.9 186.2 15.8 186.7Q14.6 187.2 13.0 187.2L13.0 187.2L9.3 187.2L10.3 186.1L10.3 190.7ZM10.3 179.4L10.3 186.4L9.3 185.3L12.9 185.3Q14.4 185.3 15.2 184.7Q15.9 184.0 15.9 182.9L15.9 182.9Q15.9 181.7 15.2 181.1Q14.4 180.5 12.9 180.5L12.9 180.5L9.3 180.5L10.3 179.4ZM33.8 190.7L24.7 190.7L24.7 178.6L33.5 178.6L33.5 180.5L27.0 180.5L27.0 188.8L33.8 188.8L33.8 190.7ZM32.8 185.5L26.8 185.5L26.8 183.6L32.8 183.6L32.8 185.5ZM42.6 190.7L40.4 190.7L40.4 178.6L45.4 178.6Q47.8 178.6 49.1 179.7Q50.5 180.9 50.5 182.9L50.5 182.9Q50.5 184.2 49.9 185.2Q49.3 186.1 48.1 186.6Q47.0 187.2 45.4 187.2L45.4 187.2L41.6 187.2L42.6 186.1L42.6 190.7ZM50.7 190.7L48.3 190.7L45.3 186.3L47.6 186.3L50.7 190.7ZM42.6 179.4L42.6 186.4L41.6 185.3L45.3 185.3Q46.8 185.3 47.5 184.7Q48.3 184.0 48.3 182.9L48.3 182.9Q48.3 181.7 47.5 181.1Q46.8 180.5 45.3 180.5L45.3 180.5L41.6 180.5L42.6 179.4ZM60.9 190.8L60.9 190.8Q59.5 190.8 58.2 190.4Q56.9 190.0 56.1 189.4L56.1 189.4L56.9 187.7Q57.6 188.2 58.7 188.6Q59.8 189.0 60.9 189.0L60.9 189.0Q61.8 189.0 62.4 188.8Q63.0 188.6 63.3 188.2Q63.6 187.9 63.6 187.4L63.6 187.4Q63.6 186.9 63.2 186.5Q62.8 186.2 62.1 186.0Q61.5 185.8 60.7 185.6Q60.0 185.4 59.2 185.2Q58.4 185.0 57.8 184.6Q57.2 184.2 56.8 183.6Q56.4 183.0 56.4 182.0L56.4 182.0Q56.4 181.0 56.9 180.2Q57.4 179.4 58.5 178.9Q59.6 178.4 61.3 178.4L61.3 178.4Q62.3 178.4 63.4 178.7Q64.5 179.0 65.3 179.5L65.3 179.5L64.6 181.2Q63.8 180.8 62.9 180.5Q62.0 180.3 61.2 180.3L61.2 180.3Q60.3 180.3 59.7 180.5Q59.2 180.7 58.9 181.1Q58.6 181.5 58.6 181.9L58.6 181.9Q58.6 182.5 59.0 182.8Q59.4 183.2 60.0 183.3Q60.7 183.5 61.4 183.7Q62.2 183.9 63.0 184.1Q63.7 184.3 64.4 184.7Q65.0 185.1 65.4 185.7Q65.8 186.3 65.8 187.3L65.8 187.3Q65.8 188.2 65.2 189.0Q64.7 189.9 63.6 190.4Q62.5 190.8 60.9 190.8ZM77.8 190.8L77.8 190.8Q76.4 190.8 75.2 190.4Q74.0 189.9 73.1 189.1Q72.2 188.2 71.8 187.1Q71.3 186.0 71.3 184.6L71.3 184.6Q71.3 183.3 71.8 182.2Q72.2 181.0 73.1 180.2Q74.0 179.4 75.2 178.9Q76.4 178.4 77.8 178.4L77.8 178.4Q79.2 178.4 80.4 178.9Q81.6 179.4 82.4 180.2Q83.3 181.0 83.8 182.2Q84.3 183.3 84.3 184.6L84.3 184.6Q84.3 186.0 83.8 187.1Q83.3 188.3 82.4 189.1Q81.6 189.9 80.4 190.4Q79.2 190.8 77.8 190.8ZM77.8 188.9L77.8 188.9Q78.7 188.9 79.5 188.6Q80.2 188.3 80.8 187.7Q81.4 187.1 81.7 186.3Q82.0 185.6 82.0 184.6L82.0 184.6Q82.0 183.7 81.7 182.9Q81.4 182.2 80.8 181.6Q80.2 181.0 79.5 180.7Q78.7 180.4 77.8 180.4L77.8 180.4Q76.9 180.4 76.1 180.7Q75.3 181.0 74.8 181.6Q74.2 182.2 73.9 182.9Q73.5 183.7 73.5 184.6L73.5 184.6Q73.5 185.6 73.9 186.3Q74.2 187.1 74.7 187.7Q75.3 188.3 76.1 188.6Q76.9 188.9 77.8 188.9ZM93.0 190.7L90.8 190.7L90.8 178.6L92.6 178.6L100.2 187.9L99.3 187.9L99.3 178.6L101.5 178.6L101.5 190.7L99.7 190.7L92.1 181.4L93.0 181.4L93.0 190.7ZM109.5 190.7L107.2 190.7L112.6 178.6L114.8 178.6L120.3 190.7L117.9 190.7L113.3 179.8L114.2 179.8L109.5 190.7ZM117.4 187.9L109.7 187.9L110.3 186.1L116.8 186.1L117.4 187.9ZM134.5 190.7L126.0 190.7L126.0 178.6L128.2 178.6L128.2 188.8L134.5 188.8L134.5 190.7ZM142.7 190.7L140.4 190.7L140.4 178.6L142.7 178.6L142.7 190.7ZM153.8 190.8L153.8 190.8Q152.4 190.8 151.1 190.4Q149.8 190.0 149.1 189.4L149.1 189.4L149.8 187.7Q150.6 188.2 151.6 188.6Q152.7 189.0 153.8 189.0L153.8 189.0Q154.8 189.0 155.3 188.8Q155.9 188.6 156.2 188.2Q156.5 187.9 156.5 187.4L156.5 187.4Q156.5 186.9 156.1 186.5Q155.7 186.2 155.1 186.0Q154.4 185.8 153.7 185.6Q152.9 185.4 152.1 185.2Q151.4 185.0 150.7 184.6Q150.1 184.2 149.7 183.6Q149.3 183.0 149.3 182.0L149.3 182.0Q149.3 181.0 149.8 180.2Q150.4 179.4 151.4 178.9Q152.5 178.4 154.2 178.4L154.2 178.4Q155.3 178.4 156.3 178.7Q157.4 179.0 158.2 179.5L158.2 179.5L157.5 181.2Q156.7 180.8 155.8 180.5Q155.0 180.3 154.2 180.3L154.2 180.3Q153.2 180.3 152.6 180.5Q152.1 180.7 151.8 181.1Q151.5 181.5 151.5 181.9L151.5 181.9Q151.5 182.5 151.9 182.8Q152.3 183.2 152.9 183.3Q153.6 183.5 154.3 183.7Q155.1 183.9 155.9 184.1Q156.7 184.3 157.3 184.7Q157.9 185.1 158.3 185.7Q158.7 186.3 158.7 187.3L158.7 187.3Q158.7 188.2 158.2 189.0Q157.6 189.9 156.6 190.4Q155.5 190.8 153.8 190.8ZM174.1 190.7L165.1 190.7L165.1 178.6L173.9 178.6L173.9 180.5L167.3 180.5L167.3 188.8L174.1 188.8L174.1 190.7ZM173.1 185.5L167.1 185.5L167.1 183.6L173.1 183.6L173.1 185.5ZM186.0 190.7L180.8 190.7L180.8 178.6L186.0 178.6Q188.0 178.6 189.5 179.4Q191.0 180.1 191.8 181.5Q192.6 182.8 192.6 184.6L192.6 184.6Q192.6 186.4 191.8 187.8Q191.0 189.2 189.5 189.9Q188.0 190.7 186.0 190.7L186.0 190.7ZM183.0 180.5L183.0 188.8L185.9 188.8Q187.3 188.8 188.3 188.3Q189.3 187.7 189.8 186.8Q190.4 185.9 190.4 184.6L190.4 184.6Q190.4 183.4 189.8 182.5Q189.3 181.5 188.3 181.0Q187.3 180.5 185.9 180.5L185.9 180.5L183.0 180.5ZM210.3 190.7L208.0 190.7L208.0 178.6L216.8 178.6L216.8 180.5L210.3 180.5L210.3 190.7ZM216.1 186.1L210.1 186.1L210.1 184.2L216.1 184.2L216.1 186.1ZM225.4 190.7L223.2 190.7L223.2 178.6L225.4 178.6L225.4 190.7ZM237.5 190.7L235.2 190.7L235.2 180.5L231.2 180.5L231.2 178.6L241.5 178.6L241.5 180.5L237.5 180.5L237.5 190.7ZM249.5 190.7L247.3 190.7L247.3 178.6L249.2 178.6L256.7 187.9L255.8 187.9L255.8 178.6L258.0 178.6L258.0 190.7L256.2 190.7L248.6 181.4L249.5 181.4L249.5 190.7ZM274.5 190.7L265.4 190.7L265.4 178.6L274.2 178.6L274.2 180.5L267.7 180.5L267.7 188.8L274.5 188.8L274.5 190.7ZM273.5 185.5L267.5 185.5L267.5 183.6L273.5 183.6L273.5 185.5ZM284.9 190.8L284.9 190.8Q283.4 190.8 282.2 190.4Q280.9 190.0 280.1 189.4L280.1 189.4L280.9 187.7Q281.6 188.2 282.7 188.6Q283.7 189.0 284.9 189.0L284.9 189.0Q285.8 189.0 286.4 188.8Q287.0 188.6 287.3 188.2Q287.5 187.9 287.5 187.4L287.5 187.4Q287.5 186.9 287.1 186.5Q286.7 186.2 286.1 186.0Q285.5 185.8 284.7 185.6Q283.9 185.4 283.2 185.2Q282.4 185.0 281.8 184.6Q281.2 184.2 280.8 183.6Q280.4 183.0 280.4 182.0L280.4 182.0Q280.4 181.0 280.9 180.2Q281.4 179.4 282.5 178.9Q283.6 178.4 285.2 178.4L285.2 178.4Q286.3 178.4 287.4 178.7Q288.4 179.0 289.2 179.5L289.2 179.5L288.5 181.2Q287.7 180.8 286.9 180.5Q286.0 180.3 285.2 180.3L285.2 180.3Q284.3 180.3 283.7 180.5Q283.1 180.7 282.9 181.1Q282.6 181.5 282.6 181.9L282.6 181.9Q282.6 182.5 283.0 182.8Q283.4 183.2 284.0 183.3Q284.6 183.5 285.4 183.7Q286.2 183.9 286.9 184.1Q287.7 184.3 288.3 184.7Q289.0 185.1 289.4 185.7Q289.7 186.3 289.7 187.3L289.7 187.3Q289.7 188.2 289.2 189.0Q288.7 189.9 287.6 190.4Q286.5 190.8 284.9 190.8ZM299.8 190.8L299.8 190.8Q298.4 190.8 297.1 190.4Q295.8 190.0 295.1 189.4L295.1 189.4L295.9 187.7Q296.6 188.2 297.7 188.6Q298.7 189.0 299.8 189.0L299.8 189.0Q300.8 189.0 301.4 188.8Q302.0 188.6 302.2 188.2Q302.5 187.9 302.5 187.4L302.5 187.4Q302.5 186.9 302.1 186.5Q301.7 186.2 301.1 186.0Q300.5 185.8 299.7 185.6Q298.9 185.4 298.2 185.2Q297.4 185.0 296.8 184.6Q296.1 184.2 295.7 183.6Q295.3 183.0 295.3 182.0L295.3 182.0Q295.3 181.0 295.9 180.2Q296.4 179.4 297.5 178.9Q298.6 178.4 300.2 178.4L300.2 178.4Q301.3 178.4 302.4 178.7Q303.4 179.0 304.2 179.5L304.2 179.5L303.5 181.2Q302.7 180.8 301.8 180.5Q301.0 180.3 300.2 180.3L300.2 180.3Q299.3 180.3 298.7 180.5Q298.1 180.7 297.8 181.1Q297.6 181.5 297.6 181.9L297.6 181.9Q297.6 182.5 298.0 182.8Q298.3 183.2 299.0 183.3Q299.6 183.5 300.4 183.7Q301.2 183.9 301.9 184.1Q302.7 184.3 303.3 184.7Q304.0 185.1 304.3 185.7Q304.7 186.3 304.7 187.3L304.7 187.3Q304.7 188.2 304.2 189.0Q303.7 189.9 302.6 190.4Q301.5 190.8 299.8 190.8ZM323.7 190.8L323.7 190.8Q322.3 190.8 321.0 190.4Q319.7 190.0 319.0 189.4L319.0 189.4L319.7 187.7Q320.5 188.2 321.5 188.6Q322.6 189.0 323.7 189.0L323.7 189.0Q324.7 189.0 325.3 188.8Q325.9 188.6 326.1 188.2Q326.4 187.9 326.4 187.4L326.4 187.4Q326.4 186.9 326.0 186.5Q325.6 186.2 325.0 186.0Q324.4 185.8 323.6 185.6Q322.8 185.4 322.1 185.2Q321.3 185.0 320.7 184.6Q320.0 184.2 319.6 183.6Q319.2 183.0 319.2 182.0L319.2 182.0Q319.2 181.0 319.8 180.2Q320.3 179.4 321.4 178.9Q322.4 178.4 324.1 178.4L324.1 178.4Q325.2 178.4 326.3 178.7Q327.3 179.0 328.1 179.5L328.1 179.5L327.4 181.2Q326.6 180.8 325.7 180.5Q324.9 180.3 324.1 180.3L324.1 180.3Q323.1 180.3 322.6 180.5Q322.0 180.7 321.7 181.1Q321.5 181.5 321.5 181.9L321.5 181.9Q321.5 182.5 321.8 182.8Q322.2 183.2 322.9 183.3Q323.5 183.5 324.3 183.7Q325.0 183.9 325.8 184.1Q326.6 184.3 327.2 184.7Q327.8 185.1 328.2 185.7Q328.6 186.3 328.6 187.3L328.6 187.3Q328.6 188.2 328.1 189.0Q327.6 189.9 326.5 190.4Q325.4 190.8 323.7 190.8ZM339.7 190.7L337.4 190.7L337.4 180.5L333.4 180.5L333.4 178.6L343.7 178.6L343.7 180.5L339.7 180.5L339.7 190.7ZM354.7 190.8L354.7 190.8Q352.2 190.8 350.8 189.4Q349.4 188.1 349.4 185.4L349.4 185.4L349.4 178.6L351.6 178.6L351.6 185.3Q351.6 187.2 352.4 188.0Q353.2 188.9 354.7 188.9L354.7 188.9Q356.2 188.9 357.0 188.0Q357.8 187.2 357.8 185.3L357.8 185.3L357.8 178.6L360.0 178.6L360.0 185.4Q360.0 188.1 358.6 189.4Q357.2 190.8 354.7 190.8ZM372.5 190.7L367.2 190.7L367.2 178.6L372.5 178.6Q374.5 178.6 376.0 179.4Q377.5 180.1 378.3 181.5Q379.1 182.8 379.1 184.6L379.1 184.6Q379.1 186.4 378.3 187.8Q377.5 189.2 376.0 189.9Q374.5 190.7 372.5 190.7L372.5 190.7ZM369.5 180.5L369.5 188.8L372.4 188.8Q373.8 188.8 374.8 188.3Q375.8 187.7 376.3 186.8Q376.8 185.9 376.8 184.6L376.8 184.6Q376.8 183.4 376.3 182.5Q375.8 181.5 374.8 181.0Q373.8 180.5 372.4 180.5L372.4 180.5L369.5 180.5ZM387.9 190.7L385.6 190.7L385.6 178.6L387.9 178.6L387.9 190.7ZM400.9 190.8L400.9 190.8Q399.5 190.8 398.3 190.4Q397.1 189.9 396.3 189.1Q395.4 188.2 394.9 187.1Q394.4 186.0 394.4 184.6L394.4 184.6Q394.4 183.3 394.9 182.2Q395.4 181.0 396.3 180.2Q397.1 179.4 398.3 178.9Q399.5 178.4 400.9 178.4L400.9 178.4Q402.3 178.4 403.5 178.9Q404.7 179.4 405.6 180.2Q406.4 181.0 406.9 182.2Q407.4 183.3 407.4 184.6L407.4 184.6Q407.4 186.0 406.9 187.1Q406.4 188.3 405.6 189.1Q404.7 189.9 403.5 190.4Q402.3 190.8 400.9 190.8ZM400.9 188.9L400.9 188.9Q401.8 188.9 402.6 188.6Q403.4 188.3 403.9 187.7Q404.5 187.1 404.8 186.3Q405.1 185.6 405.1 184.6L405.1 184.6Q405.1 183.7 404.8 182.9Q404.5 182.2 403.9 181.6Q403.4 181.0 402.6 180.7Q401.8 180.4 400.9 180.4L400.9 180.4Q400.0 180.4 399.2 180.7Q398.5 181.0 397.9 181.6Q397.3 182.2 397.0 182.9Q396.7 183.7 396.7 184.6L396.7 184.6Q396.7 185.6 397.0 186.3Q397.3 187.1 397.9 187.7Q398.4 188.3 399.2 188.6Q400.0 188.9 400.9 188.9Z" style="fill:#0F0F0F"/></svg>
